<svg xmlns="http://www.w3.org/2000/svg" fill="none" viewBox="0 0 14 14" height="14" width="14" id="Business-Handshake--Streamline-Core.svg"><desc>Business Handshake Streamline Icon: https://streamlinehq.com</desc><g id="Business-Handshake--Streamline-Core.svg"><path id="Union" fill="#000" fill-rule="evenodd" d="m5.385 5.242 1.404 -1.27a3 3 0 0 1 2.406 -0.747l1.858 0.246 2.578 -1.393a0.25 0.25 0 0 1 0.369 0.22v4.738a1 1 0 0 1 -0.418 0.813L11.846 9.09l-1.88 -1.576a2.5 2.5 0 0 0 0.966 -0.63 0.625 0.625 0 1 0 -0.9 -0.869c-0.185 0.193 -0.4 0.317 -0.652 0.366 -0.219 0.043 -0.498 0.036 -0.849 -0.072l-0.446 -0.375L6.84 6.943a1.12 1.12 0 0 1 -1.455 -1.701Zm-0.838 -0.928 1.008 -0.911a3.064 3.064 0 0 0 -1.33 -0.063l-1.835 0.318L0.376 2.574A0.255 0.255 0 0 0 0 2.799l0 4.236c0 0.338 0.167 0.654 0.446 0.844l5.455 3.719a2.043 2.043 0 0 0 2.334 -0.023l2.506 -1.779 -2.67 -2.24 -0.445 0.358a2.37 2.37 0 0 1 -3.08 -3.6Z" clip-rule="evenodd" stroke-width="1"></path></g></svg>