<svg xmlns="http://www.w3.org/2000/svg" fill="none" viewBox="0 0 14 14" height="14" width="14" id="Credit-Card-2--Streamline-Core.svg"><desc>Credit Card 2 Streamline Icon: https://streamlinehq.com</desc><g id="Credit-Card-2--Streamline-Core.svg"><path id="Subtract" fill="#000" fill-rule="evenodd" d="M0.367 0.378a0.991 0.991 0 0 1 0.705 -0.295h11.856a0.993 0.993 0 0 1 0.994 1v3a0.998 0.998 0 0 1 -0.29 0.705 0.991 0.991 0 0 1 -0.704 0.295H12V3.5a2.25 2.25 0 0 0 -2.25 -2.25h-5.5A2.25 2.25 0 0 0 2 3.5v1.583h-0.928a0.991 0.991 0 0 1 -0.705 -0.295 1.003 1.003 0 0 1 -0.289 -0.705v-3a1 1 0 0 1 0.29 -0.705Z" clip-rule="evenodd" stroke-width="1"></path><path id="Subtract_2" fill="#000" fill-rule="evenodd" d="M3.25 3.5a1 1 0 0 1 1 -1h5.5a1 1 0 0 1 1 1v9.375a1 1 0 0 1 -1 1h-5.5a1 1 0 0 1 -1 -1V3.5Zm3 1.333a0.75 0.75 0 1 1 1.5 0 0.75 0.75 0 0 1 -1.5 0Zm-1 3.354a1.75 1.75 0 1 1 3.5 0 1.75 1.75 0 0 1 -3.5 0ZM7 10.848a0.75 0.75 0 1 0 0 1.5 0.75 0.75 0 0 0 0 -1.5Z" clip-rule="evenodd" stroke-width="1"></path></g></svg>