<svg version="1.1" xmlns="http://www.w3.org/2000/svg" viewBox="-4225.024148457845 -1034.2400390625 8515.584370320637 2396.16005859375"><desc>Created with Snap</desc><defs></defs><g><rect x="-4225.024148457845" y="-1034.2400390625" width="8515.584370320637" height="2396.16005859375" fill="#004e89" style=""></rect><g><g transform="matrix(1.024,0,0,-1.024,0,0)"><path d="M41 0L41 700L151 700L151 415L269 415L269 700L379 700L379 0L269 0L269 315L151 315L151 0L41 0ZM461 0L461 700L571 700L571 0L461 0ZM809 -10Q729 -10 687 35Q645 81 645 166L645 534Q645 619 687 664Q729 710 809 710Q889 710 931 664Q973 619 973 534L973 474L869 474L869 541Q869 610 812 610Q755 610 755 541L755 158Q755 90 812 90Q869 90 869 158L869 295L814 295L814 395L973 395L973 166Q973 81 931 35Q889 -10 809 -10ZM1044 0L1044 700L1154 700L1154 415L1272 415L1272 700L1382 700L1382 0L1272 0L1272 315L1154 315L1154 0L1044 0ZM1767 -10Q1687 -10 1646 35Q1605 81 1605 166L1605 206L1709 206L1709 158Q1709 90 1766 90Q1794 90 1808 106Q1823 123 1823 160Q1823 204 1803 237Q1783 271 1729 318Q1661 378 1634 426Q1607 475 1607 536Q1607 619 1649 664Q1691 710 1771 710Q1850 710 1890 664Q1931 619 1931 534L1931 505L1827 505L1827 541Q1827 577 1813 593Q1799 610 1772 610Q1717 610 1717 543Q1717 505 1737 472Q1758 439 1812 392Q1881 332 1907 283Q1933 234 1933 168Q1933 82 1890 36Q1848 -10 1767 -10ZM2151 -10Q2072 -10 2030 35Q1989 80 1989 162L1989 538Q1989 620 2030 665Q2072 710 2151 710Q2230 710 2271 665Q2313 620 2313 538L2313 464L2209 464L2209 545Q2209 610 2154 610Q2099 610 2099 545L2099 154Q2099 90 2154 90Q2209 90 2209 154L2209 261L2313 261L2313 162Q2313 80 2271 35Q2230 -10 2151 -10ZM2379 0L2379 700L2489 700L2489 415L2607 415L2607 700L2717 700L2717 0L2607 0L2607 315L2489 315L2489 0L2379 0ZM2958 -10Q2877 -10 2834 36Q2791 82 2791 166L2791 534Q2791 618 2834 664Q2877 710 2958 710Q3039 710 3082 664Q3125 618 3125 534L3125 166Q3125 82 3082 36Q3039 -10 2958 -10ZM2958 90Q3015 90 3015 159L3015 541Q3015 610 2958 610Q2901 610 2901 541L2901 159Q2901 90 2958 90ZM3358 -10Q3277 -10 3234 36Q3191 82 3191 166L3191 534Q3191 618 3234 664Q3277 710 3358 710Q3439 710 3482 664Q3525 618 3525 534L3525 166Q3525 82 3482 36Q3439 -10 3358 -10ZM3358 90Q3415 90 3415 159L3415 541Q3415 610 3358 610Q3301 610 3301 541L3301 159Q3301 90 3358 90ZM3599 0L3599 700L3709 700L3709 100L3890 100L3890 0L3599 0Z" fill="#ffffff" style=""></path></g></g><g transform="matrix(1,0,0,1,0,1044.48)"><g transform="matrix(1.024,0,0,-1.024,0,0)"><path d="M41 0L41 700L151 700L151 100L332 100L332 0L41 0ZM545 -10Q465 -10 423 35Q381 81 381 166L381 700L491 700L491 158Q491 122 505 106Q520 90 547 90Q574 90 588 106Q603 122 603 158L603 700L709 700L709 166Q709 81 667 35Q625 -10 545 -10ZM787 0L787 700L925 700L1032 281L1034 281L1034 700L1132 700L1132 0L1019 0L887 511L885 511L885 0L787 0ZM1369 -10Q1290 -10 1248 35Q1207 80 1207 162L1207 538Q1207 620 1248 665Q1290 710 1369 710Q1448 710 1489 665Q1531 620 1531 538L1531 464L1427 464L1427 545Q1427 610 1372 610Q1317 610 1317 545L1317 154Q1317 90 1372 90Q1427 90 1427 154L1427 261L1531 261L1531 162Q1531 80 1489 35Q1448 -10 1369 -10ZM1597 0L1597 700L1707 700L1707 415L1825 415L1825 700L1935 700L1935 0L1825 0L1825 315L1707 315L1707 0L1597 0ZM2177 0L2177 700L2343 700Q2428 700 2467 660Q2506 621 2506 539L2506 511Q2506 457 2488 423Q2471 389 2435 374L2435 372Q2517 344 2517 226L2517 166Q2517 85 2474 42Q2432 0 2350 0L2177 0ZM2287 415L2330 415Q2363 415 2379 432Q2396 449 2396 489L2396 528Q2396 566 2382 583Q2369 600 2340 600L2287 600L2287 415ZM2287 100L2350 100Q2379 100 2393 115Q2407 131 2407 169L2407 230Q2407 278 2390 296Q2374 315 2336 315L2287 315L2287 100ZM2552 0L2666 700L2815 700L2929 0L2819 0L2799 139L2799 137L2674 137L2654 0L2552 0ZM2687 232L2786 232L2737 578L2735 578L2687 232ZM2982 0L2982 700L3120 700L3227 281L3229 281L3229 700L3327 700L3327 0L3214 0L3082 511L3080 511L3080 0L2982 0ZM3409 0L3409 700L3519 700L3519 405L3659 700L3769 700L3638 443L3771 0L3656 0L3563 312L3519 223L3519 0L3409 0Z" fill="#ffffff" style=""></path></g></g><g transform="matrix(2.4167,0,0,2.4167,-4019.2855,1029.9734)"><g transform="matrix(1.024,0,0,-1.024,0,0)"><path d="M41 0L41 700L151 700L151 415L269 415L269 700L379 700L379 0L269 0L269 315L151 315L151 0L41 0ZM604 -10Q524 -10 483 35Q442 81 442 166L442 206L546 206L546 158Q546 90 603 90Q631 90 645 106Q660 123 660 160Q660 204 640 237Q620 271 566 318Q498 378 471 426Q444 475 444 536Q444 619 486 664Q528 710 608 710Q687 710 727 664Q768 619 768 534L768 505L664 505L664 541Q664 577 650 593Q636 610 609 610Q554 610 554 543Q554 505 574 472Q595 439 649 392Q718 332 744 283Q770 234 770 168Q770 82 727 36Q685 -10 604 -10ZM833 0L833 700L943 700L943 100L1124 100L1124 0L833 0ZM1177 0L1177 700L1343 700Q1428 700 1467 660Q1506 621 1506 539L1506 511Q1506 457 1488 423Q1471 389 1435 374L1435 372Q1517 344 1517 226L1517 166Q1517 85 1474 42Q1432 0 1350 0L1177 0ZM1287 415L1330 415Q1363 415 1379 432Q1396 449 1396 489L1396 528Q1396 566 1382 583Q1369 600 1340 600L1287 600L1287 415ZM1287 100L1350 100Q1379 100 1393 115Q1407 131 1407 169L1407 230Q1407 278 1390 296Q1374 315 1336 315L1287 315L1287 100Z" fill="#ffffff" style=""></path></g></g></g></svg>